<svg xmlns="http://www.w3.org/2000/svg" version="1.1" xmlns:xlink="http://www.w3.org/1999/xlink" width="512" height="512" x="0" y="0" viewBox="0 0 70 70" style="enable-background:new 0 0 512 512" xml:space="preserve" class="">
  <defs>
    <filter id="glow" x="-50%" y="-50%" width="200%" height="200%">
      <feGaussianBlur stdDeviation="4" result="coloredBlur"/>
      <feMerge>
        <feMergeNode in="coloredBlur"/>
        <feMergeNode in="SourceGraphic"/>
      </feMerge>
    </filter>
  </defs>
  <g filter="url(#glow)">
    <path d="M42.901 46.378c6.43-1.44 8.76-9.62 3.524-14.342-3.56-3.207-9.569-2.282-12.249 1.939-3.904 6.159 1.637 13.991 8.725 12.403zm-7.457-11.6c2.161-3.408 7.083-4.233 9.977-1.627 4.332 3.904 2.408 10.586-2.848 11.764-5.809 1.294-10.317-5.112-7.129-10.136z" fill="#FE3D58" opacity="1" data-original="#000000"></path>
    <path d="M43.861 50.664c6.78-1.518 11.06-8.268 9.541-15.048s-8.268-11.065-15.048-9.54c-6.78 1.518-11.06 8.268-9.54 15.047 1.52 6.79 8.28 11.06 15.047 9.541zm-5.179-23.126c5.96-1.332 11.916 2.423 13.257 8.407 1.337 5.971-2.434 11.918-8.406 13.256-5.968 1.335-11.918-2.434-13.257-8.406-1.337-5.972 2.435-11.919 8.406-13.257zM17.586 39.41l-6.856 1.653a.75.75 0 0 0-.545.936c.25.868.24 1.936.535 2.966.109.377.485.6.86.53a90.356 90.356 0 0 0 7.015-1.626.751.751 0 0 0 .55-.795c-.111-1.16-.246-1.972-.677-3.186a.755.755 0 0 0-.882-.479zm-5.57 4.472c-.081-.486-.122-.972-.217-1.533l5.465-1.319c.162.545.251 1.011.319 1.56-1.83.487-3.698.921-5.567 1.292zM34.19 20.264l4.455-1.164a.75.75 0 0 0-.379-1.451l-4.456 1.164a.75.75 0 0 0 .38 1.45z" fill="#FE3D58" opacity="1" data-original="#000000"></path>
    <path d="M8.677 58.989c.239 1.146.24 2.45 1.162 3.29 1.564 1.426 4.117.38 5.888-.074 2.675-.686 44.408-10.142 47.908-11.063 4.664-1.228 3.096-4.29 2.064-8.364-1.633-7.29-2.656-10.23-4.82-20.537-.28-1.329-.362-2.94-1.55-4.051-1.853-1.739-4.206-.59-6.728-.078-2.048.486-4.107.97-6.166 1.454l-3.162-4.377c-.357-.564-1.115-1.533-2.184-1.683-1.117-.16-4.69 1.163-8.269 1.847l-.124.023c-3.944.744-3.636 2.326-5.707 8.7l-8.756 2.014-.783-3.004a.75.75 0 0 0-.911-.573c-8.238 2.05-7.91 1.847-8.196 2.095a.43.43 0 0 0-.233.07c-.314.212-.335.66-.303 1.038.056.668.173 1.332.348 1.98a2.71 2.71 0 0 1-1.698.623c-.479.008-.938.188-1.386.374-1.665.694-2.624 2.024-2.074 3.922.014 1.056 2.157 9.486 5.68 26.374zm9.61-.149c-3.193.744-5.383 1.86-6.274.658-.64-.865-.402-1.235-4.659-20.13 3.362-.476 6.538-1.35 9.344-2.125 1.033-.285 2.162-.766 2.906-2.079l4.976 22.22c-6.922 1.592-4.006.926-6.292 1.456zm-.321-31.15c-.003.326-.101-.398.982 4.542-.422 1.433-.209 2.89-2.65 3.566-2.795.772-5.963 1.647-9.273 2.104-.448-1.983-.894-4.014-1.188-6.002-.088-.59.013-1.306.438-1.573.673-.424 3.135-.668 4.357-.95zM37.37 15.804c1.715-.456 3.21-.854 3.508-.812.699.098 1.116 1.103 3.976 4.948a4243.602 4243.602 0 0 1-15.088 3.499c1.535-5.48 1.103-5.732 1.694-6.116.716-.466.849-.18 5.91-1.52zm18.237 3.135c1.334-.319 2.091-.221 2.696.346 1.03.963.19.498 4.08 16.121.627 2.521 1.276 5.127 1.857 7.72.328 1.292 1.542 4.394.404 5.188-1.052.736 1.09-.284-38.603 8.735-7.584-33.872-6.569-29.423-6.668-29.681 19.831-4.61-7.41 1.793 36.234-8.43zm-39.434 5.209.598 2.28c-1.648.378-5.505 1.268-6.546 1.502.023-.427-.308-1.752-.443-2.222z" fill="#FE3D58" opacity="1" data-original="#000000"></path>
    <path d="M38.563 41.189a.75.75 0 0 0 .23-1.035c-.604-.953-.66-2.265-.14-3.266a.75.75 0 1 0-1.33-.693 4.852 4.852 0 0 0 .205 4.763.75.75 0 0 0 1.035.23zM63.494 14.958l3.142-1.005a.751.751 0 0 0 .487-.943.754.754 0 0 0-.944-.486l-3.142 1.005c-.927.298-.512 1.727.457 1.43zM59.79 12.132a.75.75 0 0 0 1.033-.245l1.503-2.438a.751.751 0 0 0-1.277-.787L59.546 11.1a.751.751 0 0 0 .245 1.032zM56.593 7.007a.748.748 0 0 0-.637.847l.332 2.344a.749.749 0 1 0 1.484-.209l-.332-2.344a.748.748 0 0 0-.847-.638z" fill="#FE3D58" opacity="1" data-original="#000000"></path>
    <circle cx="9.638" cy="33.273" r="1.737" fill="#FE3D58" opacity="1" data-original="#000000"></circle>
    <path d="M13.889 33.82a1.3 1.3 0 1 0 0-2.6 1.3 1.3 0 0 0 0 2.6z" fill="#FE3D58" opacity="1" data-original="#000000"></path>
  </g>
</svg>