<svg width="123" height="97" viewBox="0 0 123 97" fill="none" xmlns="http://www.w3.org/2000/svg">
<g clip-path="url(#clip0_139_11)">
<path d="M14.21 27.25H108.49C109.301 27.2526 110.078 27.5759 110.651 28.1491C111.224 28.7224 111.547 29.4992 111.55 30.31V35H122.88V46.79H111.55V82.79C111.534 86.4052 110.089 89.8674 107.53 92.4209C104.971 94.9745 101.505 96.4121 97.89 96.42H24.82C21.1961 96.4147 17.7222 94.9728 15.1597 92.4103C12.5972 89.8478 11.1553 86.3739 11.15 82.75V46.75H0V35H11.15V30.31C11.1526 29.4992 11.4759 28.7224 12.0492 28.1491C12.6225 27.5759 13.3992 27.2526 14.21 27.25ZM62.79 20.85C62.5799 21.0601 62.3304 21.2268 62.0559 21.3405C61.7814 21.4542 61.4871 21.5127 61.19 21.5127C60.8929 21.5127 60.5986 21.4542 60.3241 21.3405C60.0496 21.2268 59.8001 21.0601 59.59 20.85C59.3799 20.6399 59.2132 20.3904 59.0995 20.1159C58.9858 19.8414 58.9273 19.5471 58.9273 19.25C58.9273 18.9528 58.9858 18.6586 59.0995 18.3841C59.2132 18.1095 59.3799 17.8601 59.59 17.65C61.13 16.11 60.4 14.74 59.59 13.14C57.96 10.14 56.1 6.62998 59.28 1.13998C59.4284 0.883905 59.6258 0.659563 59.8609 0.479766C60.096 0.299969 60.3642 0.168238 60.6502 0.0920939C60.9362 0.0159499 61.2344 -0.00311577 61.5278 0.0359855C61.8211 0.0750867 62.1039 0.171589 62.36 0.319983C62.6161 0.468377 62.8404 0.665755 63.0202 0.90085C63.2 1.13594 63.3317 1.40415 63.4079 1.69016C63.484 1.97616 63.5031 2.27436 63.464 2.56773C63.4249 2.86111 63.3284 3.14391 63.18 3.39998C61.22 6.71998 62.45 8.99998 63.52 11C65.23 14.18 66.69 16.93 62.79 20.83V20.85ZM24.51 20.85C24.0857 21.2743 23.5101 21.5127 22.91 21.5127C22.3099 21.5127 21.7343 21.2743 21.31 20.85C20.8857 20.4256 20.6473 19.8501 20.6473 19.25C20.6473 18.6499 20.8857 18.0743 21.31 17.65C22.85 16.11 22.12 14.74 21.31 13.14C19.68 10.14 17.82 6.62998 21 1.13998C21.1484 0.883905 21.3458 0.659563 21.5809 0.479766C21.816 0.299969 22.0842 0.168238 22.3702 0.0920939C22.6562 0.0159499 22.9544 -0.0031158 23.2478 0.0359854C23.5411 0.0750867 23.8239 0.171589 24.08 0.319983C24.3361 0.468377 24.5604 0.665755 24.7402 0.90085C24.92 1.13594 25.0517 1.40415 25.1279 1.69016C25.204 1.97616 25.2231 2.27436 25.184 2.56773C25.1449 2.86111 25.0484 3.14391 24.9 3.39998C22.94 6.71998 24.17 8.99998 25.24 11C26.94 14.18 28.41 16.93 24.51 20.83V20.85ZM43.65 20.85C43.4399 21.0601 43.1904 21.2268 42.9159 21.3405C42.6414 21.4542 42.3471 21.5127 42.05 21.5127C41.7529 21.5127 41.4586 21.4542 41.1841 21.3405C40.9096 21.2268 40.6601 21.0601 40.45 20.85C40.2399 20.6399 40.0732 20.3904 39.9595 20.1159C39.8458 19.8414 39.7873 19.5471 39.7873 19.25C39.7873 18.9528 39.8458 18.6586 39.9595 18.3841C40.0732 18.1095 40.2399 17.8601 40.45 17.65C41.99 16.11 41.26 14.74 40.45 13.14C38.82 10.14 36.96 6.62998 40.14 1.13998C40.2663 0.848006 40.4531 0.586127 40.688 0.371627C40.9229 0.157127 41.2006 -0.005119 41.5029 -0.104405C41.8051 -0.203691 42.1249 -0.23776 42.4413 -0.204364C42.7577 -0.170968 43.0634 -0.0708667 43.3382 0.0893356C43.613 0.249538 43.8508 0.466199 44.0357 0.725023C44.2207 0.983847 44.3487 1.27895 44.4112 1.59086C44.4737 1.90277 44.4694 2.2244 44.3985 2.53452C44.3277 2.84464 44.1918 3.13621 44 3.38998C42.08 6.71998 43.31 8.99998 44.38 11C46.08 14.18 47.55 16.93 43.65 20.83V20.85ZM101.39 17.65C101.6 17.8601 101.767 18.1095 101.881 18.3841C101.994 18.6586 102.053 18.9528 102.053 19.25C102.053 19.5471 101.994 19.8414 101.881 20.1159C101.767 20.3904 101.6 20.6399 101.39 20.85C101.18 21.0601 100.93 21.2268 100.656 21.3405C100.381 21.4542 100.087 21.5127 99.79 21.5127C99.4929 21.5127 99.1986 21.4542 98.9241 21.3405C98.6496 21.2268 98.4001 21.0601 98.19 20.85C94.28 17 95.75 14.2 97.46 11C98.53 8.99998 99.76 6.69998 97.83 3.36998C97.6668 3.11275 97.5573 2.82518 97.5081 2.52455C97.4589 2.22393 97.4709 1.91645 97.5435 1.62061C97.6162 1.32476 97.7478 1.04665 97.9307 0.802982C98.1135 0.559316 98.3437 0.355126 98.6074 0.202682C98.8712 0.0502382 99.163 -0.0473125 99.4654 -0.0841083C99.7678 -0.120904 100.075 -0.0961854 100.367 -0.0114375C100.66 0.0733104 100.932 0.216338 101.168 0.409051C101.404 0.601763 101.599 0.840183 101.74 1.10998C104.92 6.60998 103.06 10.11 101.43 13.11C100.58 14.71 99.84 16.11 101.43 17.62L101.39 17.65ZM82.25 17.65C82.4601 17.8601 82.6268 18.1095 82.7405 18.3841C82.8542 18.6586 82.9127 18.9528 82.9127 19.25C82.9127 19.5471 82.8542 19.8414 82.7405 20.1159C82.6268 20.3904 82.4601 20.6399 82.25 20.85C82.0399 21.0601 81.7904 21.2268 81.5159 21.3405C81.2414 21.4542 80.9471 21.5127 80.65 21.5127C80.3529 21.5127 80.0586 21.4542 79.7841 21.3405C79.5096 21.2268 79.2601 21.0601 79.05 20.85C75.14 17 76.61 14.2 78.32 11C79.39 8.99998 80.62 6.69998 78.69 3.36998C78.5144 3.11248 78.394 2.82145 78.3363 2.51517C78.2786 2.20889 78.2849 1.89399 78.3547 1.59025C78.4246 1.28651 78.5565 1.00051 78.7422 0.750203C78.9279 0.4999 79.1634 0.290712 79.4338 0.135785C79.7042 -0.0191429 80.0038 -0.116461 80.3136 -0.150055C80.6235 -0.183648 80.9369 -0.152791 81.2343 -0.0594214C81.5316 0.033948 81.8065 0.187811 82.0415 0.392499C82.2765 0.597186 82.4667 0.848274 82.6 1.12998C85.78 6.62998 83.92 10.13 82.29 13.13C81.44 14.73 80.7 16.13 82.29 17.64L82.25 17.65ZM25.25 38.52V65.52H21.89V38.52H25.25ZM107 31.77H15.67V82.77C15.6779 85.1943 16.6445 87.517 18.3587 89.2313C20.073 90.9455 22.3957 91.9121 24.82 91.92H97.89C100.31 91.9042 102.625 90.9324 104.332 89.2166C106.038 87.5007 106.997 85.1799 107 82.76V31.76V31.77Z" fill="#FE3D58"/>
</g>
<defs>
<filter id="glow" x="-50%" y="-50%" width="200%" height="200%">
  <feGaussianBlur stdDeviation="3.5" result="coloredBlur"/>
  <feMerge>
    <feMergeNode in="coloredBlur"/>
    <feMergeNode in="SourceGraphic"/>
  </feMerge>
</filter>
<clipPath id="clip0_139_11">
<rect width="122.88" height="96.42" fill="white"/>
</clipPath>
</defs>
</svg>