<svg xmlns="http://www.w3.org/2000/svg" version="1.1" xmlns:xlink="http://www.w3.org/1999/xlink" width="512" height="512" x="0" y="0" viewBox="0 0 511.384 511.384" style="enable-background:new 0 0 512 512" xml:space="preserve"><g><radialGradient id="a" cx="-456.624" cy="-94.548" r=".74" gradientTransform="matrix(453.822 0 0 -453.822 207352.422 -42727.547)" gradientUnits="userSpaceOnUse"><stop offset="0" stop-color="#aeb2d5"></stop><stop offset=".3" stop-color="#aeb2d5"></stop><stop offset=".75" stop-color="#484c89"></stop><stop offset="1" stop-color="#484c89"></stop></radialGradient><path fill="url(#a)" d="M3.52 110.886C3.52 51.459 95.104 3.283 208.073 3.283c112.97 0 204.554 48.176 204.554 107.603 0 59.426-91.584 107.603-204.554 107.603C95.104 218.488 3.52 170.312 3.52 110.886" transform="matrix(1.25 0 0 -1.25 -4.4 394.299)" opacity="1" data-original="url(#a)"></path><path fill="#777bb3" d="M255.691 380.209c135.697 0 245.704-55.749 245.704-124.518 0-68.767-110.007-124.517-245.704-124.517S9.988 186.924 9.988 255.691c0 68.77 110.007 124.518 245.703 124.518" opacity="1" data-original="#777bb3"></path><path d="M138.919 271.13c11.157 0 19.487-2.057 24.757-6.114 5.214-4.015 8.815-10.97 10.703-20.672 1.76-9.069 1.09-15.401-1.993-18.817-3.151-3.49-9.962-5.26-20.247-5.26h-17.832l-9.885 50.865h14.497zm-58.321 62.655a2.771 2.771 0 0 1-2.723-3.303l26.199-134.792a2.776 2.776 0 0 1 2.724-2.245h56.463c17.745 0 30.954 4.819 39.255 14.323 8.347 9.554 10.924 22.91 7.66 39.694-1.327 6.837-3.612 13.188-6.788 18.875-3.18 5.692-7.384 10.958-12.495 15.657-6.12 5.726-13.044 9.879-20.564 12.323-7.401 2.41-16.906 3.633-28.251 3.633h-22.864l-6.53 33.59a2.774 2.774 0 0 1-2.723 2.245z" fill="#000000" opacity="1" data-original="#000000"></path><path fill="#ffffff" d="M136.599 223.04h15.543c12.412 0 16.724 2.724 18.19 4.346 2.43 2.695 2.888 8.378 1.327 16.432-1.755 9.016-5.009 15.41-9.672 19-4.773 3.675-12.535 5.537-23.066 5.537h-11.129zm26.662-32.369h-56.464a5.548 5.548 0 0 0-5.446 4.49L75.154 329.954a5.549 5.549 0 0 0 5.446 6.606h29.362a5.549 5.549 0 0 0 5.448-4.49l6.092-31.346h20.577c11.636 0 21.431-1.269 29.112-3.77 7.899-2.566 15.166-6.917 21.598-12.933 5.32-4.893 9.701-10.387 13.021-16.33 3.321-5.943 5.707-12.572 7.091-19.7 3.436-17.667.645-31.814-8.295-42.047-8.852-10.134-22.764-15.272-41.345-15.272m-42.201 83.232h17.861c11.839 0 20.656-2.23 26.45-6.69 5.795-4.461 9.703-11.907 11.734-22.34 1.942-10.017 1.057-17.086-2.655-21.205-3.718-4.119-11.153-6.178-22.308-6.178h-20.118zm42.201-77.684c16.986 0 29.378 4.458 37.166 13.374 7.788 8.916 10.134 21.361 7.027 37.339-1.279 6.582-3.443 12.6-6.488 18.051-3.049 5.455-7.03 10.444-11.95 14.968-5.864 5.487-12.376 9.397-19.544 11.726-7.167 2.335-16.296 3.497-27.393 3.497h-25.152l-6.965 35.836H80.6l26.197-134.79z" opacity="1" data-original="#ffffff"></path><path d="M277.501 297.949a2.774 2.774 0 0 1-2.724-3.304l11.59-59.64c1.102-5.671.83-9.742-.766-11.462-.976-1.052-3.91-2.815-12.583-2.815h-20.995l-14.57 74.976a2.775 2.775 0 0 1-2.724 2.245h-29.131a2.774 2.774 0 0 1-2.724-3.304l26.197-134.792a2.776 2.776 0 0 1 2.724-2.245h29.131a2.772 2.772 0 0 1 2.724 3.304l-6.322 32.532h22.586c17.206 0 28.874 3.034 35.669 9.274 6.927 6.366 9.087 16.546 6.425 30.259l-12.19 62.724a2.775 2.775 0 0 1-2.723 2.245h-29.594z" fill="#000000" opacity="1" data-original="#000000"></path><path fill="#ffffff" d="M260.926 154.835h-29.131a5.549 5.549 0 0 0-5.447 4.49L200.15 294.118a5.548 5.548 0 0 0 5.448 6.606h29.13a5.55 5.55 0 0 0 5.448-4.49l14.134-72.731h18.708c8.658 0 10.476 1.85 10.548 1.929.525.565 1.217 3.182.077 9.045l-11.59 59.64a5.548 5.548 0 0 0 5.448 6.606h29.594a5.55 5.55 0 0 0 5.448-4.49l12.187-62.725c2.86-14.724.414-25.769-7.27-32.832-7.332-6.733-19.614-10.006-37.546-10.006h-19.221l5.68-29.229a5.552 5.552 0 0 0-1.164-4.587 5.555 5.555 0 0 0-4.283-2.019m0 5.549-6.965 35.836h25.953c16.33 0 27.592 2.85 33.791 8.544 6.199 5.696 8.056 14.927 5.579 27.687l-12.189 62.724h-29.594l11.589-59.639c1.319-6.785.834-11.412-1.455-13.88-2.291-2.467-7.164-3.702-14.616-3.702h-23.283l-15.006 77.221h-29.131l26.197-134.791z" opacity="1" data-original="#ffffff"></path><path d="M368.103 271.13c11.157 0 19.487-2.057 24.757-6.114 5.214-4.013 8.815-10.968 10.704-20.672 1.76-9.069 1.09-15.401-1.993-18.817-3.151-3.49-9.962-5.26-20.246-5.26h-17.831l-9.885 50.865h14.494zm-58.322 62.655a2.774 2.774 0 0 1-2.724-3.304l26.198-134.792a2.776 2.776 0 0 1 2.725-2.245h56.463c17.746 0 30.953 4.819 39.256 14.323 8.346 9.553 10.922 22.908 7.66 39.693-1.33 6.838-3.614 13.189-6.79 18.875-3.18 5.693-7.384 10.959-12.495 15.658-6.119 5.726-13.044 9.879-20.564 12.322-7.401 2.411-16.906 3.634-28.251 3.634h-22.864l-6.526 33.591a2.775 2.775 0 0 1-2.725 2.245z" fill="#000000" opacity="1" data-original="#000000"></path><path fill="#ffffff" d="M365.78 223.04h15.544c12.412 0 16.723 2.724 18.188 4.346 2.432 2.695 2.89 8.378 1.328 16.43-1.755 9.018-5.01 15.412-9.671 19.002-4.774 3.675-12.535 5.537-23.067 5.537h-11.128zm26.662-32.369H335.98a5.548 5.548 0 0 0-5.446 4.49l-26.198 134.793a5.549 5.549 0 0 0 5.446 6.606h29.363a5.55 5.55 0 0 0 5.447-4.49l6.091-31.346h20.577c11.636 0 21.431-1.269 29.112-3.77 7.899-2.566 15.168-6.919 21.6-12.935 5.32-4.893 9.7-10.385 13.02-16.328 3.322-5.943 5.708-12.572 7.092-19.7 3.436-17.668.645-31.816-8.295-42.048-8.853-10.133-22.763-15.271-41.345-15.271m-42.2 83.232h17.86c11.838 0 20.656-2.23 26.45-6.69 5.796-4.461 9.702-11.907 11.733-22.34 1.944-10.017 1.059-17.086-2.655-21.205-3.717-4.119-11.152-6.178-22.307-6.178h-20.119zm42.2-77.684c16.986 0 29.377 4.458 37.166 13.374s10.132 21.361 7.026 37.339c-1.279 6.582-3.442 12.6-6.488 18.051-3.048 5.455-7.03 10.444-11.95 14.968-5.863 5.487-12.376 9.397-19.543 11.726-7.168 2.335-16.296 3.497-27.394 3.497h-25.151l-6.964 35.836h-29.362l26.197-134.79z" opacity="1" data-original="#ffffff"></path></g></svg>