<svg xmlns="http://www.w3.org/2000/svg" version="1.1" xmlns:xlink="http://www.w3.org/1999/xlink" viewBox="0 0 64 64" style="enable-background:new 0 0 512 512" xml:space="preserve">
  <g>
    <path d="M25 6H11a5.006 5.006 0 0 0-5 5v14a5.006 5.006 0 0 0 5 5h14a5.006 5.006 0 0 0 5-5V11a5.006 5.006 0 0 0-5-5zm3 19a3 3 0 0 1-3 3H11a3 3 0 0 1-3-3V11a3 3 0 0 1 3-3h14a3 3 0 0 1 3 3zM53 6H39a5.006 5.006 0 0 0-5 5v14a5.006 5.006 0 0 0 5 5h14a5.006 5.006 0 0 0 5-5V11a5.006 5.006 0 0 0-5-5zm3 19a3 3 0 0 1-3 3H39a3 3 0 0 1-3-3V11a3 3 0 0 1 3-3h14a3 3 0 0 1 3 3zm-31 9H11a5.006 5.006 0 0 0-5 5v14a5.006 5.006 0 0 0 5 5h14a5.006 5.006 0 0 0 5-5V39a5.006 5.006 0 0 0-5-5zm3 19a3 3 0 0 1-3 3H11a3 3 0 0 1-3-3V39a3 3 0 0 1 3-3h14a3 3 0 0 1 3 3zm18-19a12 12 0 1 0 12 12 12.013 12.013 0 0 0-12-12zm0 22a10 10 0 1 1 10-10 10.011 10.011 0 0 1-10 10z" fill="#FE3D58" opacity="1" data-original="#000000"></path>
  </g>
</svg>